<mxfile host="Electron" agent="Mozilla/5.0 (Windows NT 10.0; Win64; x64) AppleWebKit/537.36 (KHTML, like Gecko) draw.io/24.7.5 Chrome/126.0.6478.183 Electron/31.3.0 Safari/537.36" version="24.7.5">
  <diagram name="architecture" id="jdjMNtcG541bvmdIEKFT">
    <mxGraphModel dx="1877" dy="621" grid="1" gridSize="10" guides="1" tooltips="1" connect="1" arrows="1" fold="1" page="1" pageScale="1" pageWidth="827" pageHeight="1169" math="0" shadow="0">
      <root>
        <mxCell id="0" />
        <mxCell id="1" parent="0" />
        <UserObject label="inspired by vin.gg, they used the following stack&#xa;- Rust for handling mouse and keyboard input / data collection&#xa;- Python for API requests&#xa;- MongoDB for data storage&#xa;- Next for frontend&#xa;&#xa;ill use the same stack but will swap out Rust for C++/Python and use Flask for the API" id="Pbkdn_DneR84cisDWlcS-2">
          <mxCell style="text;whiteSpace=wrap;" parent="1" vertex="1">
            <mxGeometry x="80" y="120" width="350" height="130" as="geometry" />
          </mxCell>
        </UserObject>
        <mxCell id="Pbkdn_DneR84cisDWlcS-7" style="edgeStyle=orthogonalEdgeStyle;rounded=0;orthogonalLoop=1;jettySize=auto;html=1;exitX=1;exitY=0.25;exitDx=0;exitDy=0;entryX=0;entryY=0.25;entryDx=0;entryDy=0;" parent="1" source="Pbkdn_DneR84cisDWlcS-5" target="Pbkdn_DneR84cisDWlcS-6" edge="1">
          <mxGeometry relative="1" as="geometry" />
        </mxCell>
        <mxCell id="Pbkdn_DneR84cisDWlcS-8" value="POST /keyPresses" style="edgeLabel;html=1;align=center;verticalAlign=middle;resizable=0;points=[];" parent="Pbkdn_DneR84cisDWlcS-7" vertex="1" connectable="0">
          <mxGeometry x="-0.216" y="-2" relative="1" as="geometry">
            <mxPoint x="22" y="-2" as="offset" />
          </mxGeometry>
        </mxCell>
        <mxCell id="Pbkdn_DneR84cisDWlcS-20" style="edgeStyle=orthogonalEdgeStyle;rounded=0;orthogonalLoop=1;jettySize=auto;html=1;exitX=1;exitY=0.75;exitDx=0;exitDy=0;entryX=0;entryY=0.75;entryDx=0;entryDy=0;" parent="1" source="Pbkdn_DneR84cisDWlcS-5" target="Pbkdn_DneR84cisDWlcS-6" edge="1">
          <mxGeometry relative="1" as="geometry" />
        </mxCell>
        <mxCell id="Pbkdn_DneR84cisDWlcS-21" value="POST /mouseMovement" style="edgeLabel;html=1;align=center;verticalAlign=middle;resizable=0;points=[];" parent="Pbkdn_DneR84cisDWlcS-20" vertex="1" connectable="0">
          <mxGeometry x="-0.2961" y="2" relative="1" as="geometry">
            <mxPoint x="30" y="2" as="offset" />
          </mxGeometry>
        </mxCell>
        <mxCell id="Pbkdn_DneR84cisDWlcS-22" style="edgeStyle=orthogonalEdgeStyle;rounded=0;orthogonalLoop=1;jettySize=auto;html=1;exitX=1;exitY=0.5;exitDx=0;exitDy=0;entryX=0;entryY=0.5;entryDx=0;entryDy=0;" parent="1" source="Pbkdn_DneR84cisDWlcS-5" target="Pbkdn_DneR84cisDWlcS-6" edge="1">
          <mxGeometry relative="1" as="geometry" />
        </mxCell>
        <mxCell id="Pbkdn_DneR84cisDWlcS-38" value="POST /leftClicks" style="edgeLabel;html=1;align=center;verticalAlign=middle;resizable=0;points=[];" parent="Pbkdn_DneR84cisDWlcS-22" vertex="1" connectable="0">
          <mxGeometry x="-0.088" y="-2" relative="1" as="geometry">
            <mxPoint x="9" y="-2" as="offset" />
          </mxGeometry>
        </mxCell>
        <mxCell id="Pbkdn_DneR84cisDWlcS-5" value="C++ code / background process running on my PC, monitoring MnK input" style="rounded=1;whiteSpace=wrap;html=1;" parent="1" vertex="1">
          <mxGeometry x="40" y="400" width="160" height="80" as="geometry" />
        </mxCell>
        <mxCell id="Pbkdn_DneR84cisDWlcS-24" style="edgeStyle=orthogonalEdgeStyle;rounded=0;orthogonalLoop=1;jettySize=auto;html=1;exitX=0.25;exitY=1;exitDx=0;exitDy=0;entryX=0.145;entryY=0;entryDx=0;entryDy=4.35;entryPerimeter=0;" parent="1" source="Pbkdn_DneR84cisDWlcS-6" target="Pbkdn_DneR84cisDWlcS-31" edge="1">
          <mxGeometry relative="1" as="geometry">
            <mxPoint x="430" y="560" as="targetPoint" />
          </mxGeometry>
        </mxCell>
        <mxCell id="Pbkdn_DneR84cisDWlcS-28" value="read/store keyPresses,&amp;nbsp;&lt;div&gt;leftClicks,&amp;nbsp;&lt;/div&gt;&lt;div&gt;mouseMovement&lt;/div&gt;" style="edgeLabel;html=1;align=center;verticalAlign=middle;resizable=0;points=[];" parent="Pbkdn_DneR84cisDWlcS-24" vertex="1" connectable="0">
          <mxGeometry x="-0.04" y="-3" relative="1" as="geometry">
            <mxPoint x="-27" y="-3" as="offset" />
          </mxGeometry>
        </mxCell>
        <mxCell id="Pbkdn_DneR84cisDWlcS-6" value="Flask API deployed on host server" style="rounded=1;whiteSpace=wrap;html=1;" parent="1" vertex="1">
          <mxGeometry x="400" y="400" width="120" height="80" as="geometry" />
        </mxCell>
        <UserObject label="bulk POST operation from my PC to the API atÂ particular interval, every 10/20 minutes" id="Pbkdn_DneR84cisDWlcS-19">
          <mxCell style="text;whiteSpace=wrap;" parent="1" vertex="1">
            <mxGeometry x="210" y="335" width="160" height="55" as="geometry" />
          </mxCell>
        </UserObject>
        <mxCell id="Pbkdn_DneR84cisDWlcS-27" style="edgeStyle=orthogonalEdgeStyle;rounded=0;orthogonalLoop=1;jettySize=auto;html=1;exitX=0.855;exitY=0;exitDx=0;exitDy=4.35;entryX=0.75;entryY=1;entryDx=0;entryDy=0;exitPerimeter=0;startArrow=none;startFill=0;" parent="1" source="Pbkdn_DneR84cisDWlcS-31" target="Pbkdn_DneR84cisDWlcS-6" edge="1">
          <mxGeometry relative="1" as="geometry">
            <mxPoint x="490" y="560" as="sourcePoint" />
          </mxGeometry>
        </mxCell>
        <mxCell id="Pbkdn_DneR84cisDWlcS-30" value="retrieve data&amp;nbsp;" style="edgeLabel;html=1;align=center;verticalAlign=middle;resizable=0;points=[];" parent="Pbkdn_DneR84cisDWlcS-27" vertex="1" connectable="0">
          <mxGeometry x="0.015" y="-3" relative="1" as="geometry">
            <mxPoint x="17" y="-3" as="offset" />
          </mxGeometry>
        </mxCell>
        <mxCell id="Pbkdn_DneR84cisDWlcS-31" value="MongoDB" style="shape=cylinder3;whiteSpace=wrap;html=1;boundedLbl=1;backgroundOutline=1;size=15;" parent="1" vertex="1">
          <mxGeometry x="417.5" y="560" width="85" height="80" as="geometry" />
        </mxCell>
        <mxCell id="Pbkdn_DneR84cisDWlcS-33" style="edgeStyle=orthogonalEdgeStyle;rounded=0;orthogonalLoop=1;jettySize=auto;html=1;exitX=0;exitY=0.25;exitDx=0;exitDy=0;entryX=1;entryY=0.25;entryDx=0;entryDy=0;startArrow=classic;startFill=1;" parent="1" source="Pbkdn_DneR84cisDWlcS-32" target="Pbkdn_DneR84cisDWlcS-6" edge="1">
          <mxGeometry relative="1" as="geometry" />
        </mxCell>
        <mxCell id="Pbkdn_DneR84cisDWlcS-34" value="GET /keyPresses" style="edgeLabel;html=1;align=center;verticalAlign=middle;resizable=0;points=[];" parent="Pbkdn_DneR84cisDWlcS-33" vertex="1" connectable="0">
          <mxGeometry x="-0.1033" y="2" relative="1" as="geometry">
            <mxPoint x="-10" y="-2" as="offset" />
          </mxGeometry>
        </mxCell>
        <mxCell id="Pbkdn_DneR84cisDWlcS-39" style="edgeStyle=orthogonalEdgeStyle;rounded=0;orthogonalLoop=1;jettySize=auto;html=1;exitX=0;exitY=0.5;exitDx=0;exitDy=0;entryX=1;entryY=0.5;entryDx=0;entryDy=0;startArrow=classic;startFill=1;" parent="1" source="Pbkdn_DneR84cisDWlcS-32" target="Pbkdn_DneR84cisDWlcS-6" edge="1">
          <mxGeometry relative="1" as="geometry" />
        </mxCell>
        <mxCell id="Pbkdn_DneR84cisDWlcS-41" value="GET /leftClicks" style="edgeLabel;html=1;align=center;verticalAlign=middle;resizable=0;points=[];" parent="Pbkdn_DneR84cisDWlcS-39" vertex="1" connectable="0">
          <mxGeometry x="0.1686" relative="1" as="geometry">
            <mxPoint x="17" as="offset" />
          </mxGeometry>
        </mxCell>
        <mxCell id="Pbkdn_DneR84cisDWlcS-40" style="edgeStyle=orthogonalEdgeStyle;rounded=0;orthogonalLoop=1;jettySize=auto;html=1;exitX=0;exitY=0.75;exitDx=0;exitDy=0;entryX=1;entryY=0.75;entryDx=0;entryDy=0;startArrow=classic;startFill=1;" parent="1" source="Pbkdn_DneR84cisDWlcS-32" target="Pbkdn_DneR84cisDWlcS-6" edge="1">
          <mxGeometry relative="1" as="geometry" />
        </mxCell>
        <mxCell id="Pbkdn_DneR84cisDWlcS-42" value="GET /mouseMovement" style="edgeLabel;html=1;align=center;verticalAlign=middle;resizable=0;points=[];" parent="Pbkdn_DneR84cisDWlcS-40" vertex="1" connectable="0">
          <mxGeometry x="-0.022" y="-1" relative="1" as="geometry">
            <mxPoint as="offset" />
          </mxGeometry>
        </mxCell>
        <mxCell id="Pbkdn_DneR84cisDWlcS-32" value="NextJS frontend with data visualizations" style="rounded=1;whiteSpace=wrap;html=1;" parent="1" vertex="1">
          <mxGeometry x="707" y="400" width="120" height="80" as="geometry" />
        </mxCell>
        <mxCell id="Pbkdn_DneR84cisDWlcS-43" value="&lt;span style=&quot;color: rgb(0, 0, 0); font-family: Helvetica; font-size: 12px; font-style: normal; font-variant-ligatures: normal; font-variant-caps: normal; font-weight: 400; letter-spacing: normal; orphans: 2; text-align: left; text-indent: 0px; text-transform: none; widows: 2; word-spacing: 0px; -webkit-text-stroke-width: 0px; white-space: normal; background-color: rgb(251, 251, 251); text-decoration-thickness: initial; text-decoration-style: initial; text-decoration-color: initial; display: inline !important; float: none;&quot;&gt;authenticate requests so only the ones sent from my PC or the frontend app are accepted&lt;/span&gt;" style="text;whiteSpace=wrap;html=1;" parent="1" vertex="1">
          <mxGeometry x="400" y="320" width="140" height="70" as="geometry" />
        </mxCell>
        <mxCell id="Pbkdn_DneR84cisDWlcS-47" value="&lt;span style=&quot;color: rgb(0, 0, 0); font-family: Helvetica; font-size: 12px; font-style: normal; font-variant-ligatures: normal; font-variant-caps: normal; font-weight: 400; letter-spacing: normal; orphans: 2; text-align: left; text-indent: 0px; text-transform: none; widows: 2; word-spacing: 0px; -webkit-text-stroke-width: 0px; white-space: normal; background-color: rgb(251, 251, 251); text-decoration-thickness: initial; text-decoration-style: initial; text-decoration-color: initial; display: inline !important; float: none;&quot;&gt;keep in mind MongoDB Atlas M0 free tier cluster limits you to 512MB&lt;/span&gt;" style="text;whiteSpace=wrap;html=1;" parent="1" vertex="1">
          <mxGeometry x="210" y="580" width="140" height="60" as="geometry" />
        </mxCell>
        <mxCell id="aZ4uzSHESlweVzvk02ub-3" value="&lt;span style=&quot;color: rgb(0, 0, 0); font-family: Helvetica; font-size: 12px; font-style: normal; font-variant-ligatures: normal; font-variant-caps: normal; font-weight: 400; letter-spacing: normal; orphans: 2; text-align: left; text-indent: 0px; text-transform: none; widows: 2; word-spacing: 0px; -webkit-text-stroke-width: 0px; white-space: normal; background-color: rgb(251, 251, 251); text-decoration-thickness: initial; text-decoration-style: initial; text-decoration-color: initial; display: inline !important; float: none;&quot;&gt;use switch status button as theme switcher, blue/red neon theme&lt;/span&gt;" style="text;whiteSpace=wrap;html=1;" parent="1" vertex="1">
          <mxGeometry x="690" y="310" width="170" height="70" as="geometry" />
        </mxCell>
        <UserObject label="after records created broadcast to frontend app and update graph" id="6amxDOUdlWKgfNY0tp80-1">
          <mxCell style="text;whiteSpace=wrap;" parent="1" vertex="1">
            <mxGeometry x="400" y="250" width="160" height="55" as="geometry" />
          </mxCell>
        </UserObject>
        <mxCell id="eVPt_sh99IwoySq7BfNU-1" value="" style="rounded=0;whiteSpace=wrap;html=1;" parent="1" vertex="1">
          <mxGeometry x="-720" y="240" width="680" height="400" as="geometry" />
        </mxCell>
        <mxCell id="eVPt_sh99IwoySq7BfNU-3" value="data log" style="rounded=0;whiteSpace=wrap;html=1;" parent="1" vertex="1">
          <mxGeometry x="-560" y="520" width="480" height="80" as="geometry" />
        </mxCell>
        <mxCell id="eVPt_sh99IwoySq7BfNU-5" value="visualization" style="rounded=0;whiteSpace=wrap;html=1;" parent="1" vertex="1">
          <mxGeometry x="-560" y="280" width="480" height="200" as="geometry" />
        </mxCell>
        <mxCell id="eVPt_sh99IwoySq7BfNU-6" value="slider adjust POST interval" style="rounded=0;whiteSpace=wrap;html=1;" parent="1" vertex="1">
          <mxGeometry x="-680" y="335" width="80" height="40" as="geometry" />
        </mxCell>
        <mxCell id="eVPt_sh99IwoySq7BfNU-8" value="sync offline data" style="rounded=0;whiteSpace=wrap;html=1;" parent="1" vertex="1">
          <mxGeometry x="-680" y="390" width="80" height="40" as="geometry" />
        </mxCell>
        <mxCell id="eVPt_sh99IwoySq7BfNU-9" value="edit socials handle" style="rounded=0;whiteSpace=wrap;html=1;" parent="1" vertex="1">
          <mxGeometry x="-600" y="900" width="160" height="20" as="geometry" />
        </mxCell>
        <mxCell id="eVPt_sh99IwoySq7BfNU-10" value="edit introduction" style="rounded=0;whiteSpace=wrap;html=1;" parent="1" vertex="1">
          <mxGeometry x="-600" y="800" width="160" height="20" as="geometry" />
        </mxCell>
        <mxCell id="eVPt_sh99IwoySq7BfNU-11" value="edit bio" style="rounded=0;whiteSpace=wrap;html=1;" parent="1" vertex="1">
          <mxGeometry x="-600" y="830" width="160" height="60" as="geometry" />
        </mxCell>
        <mxCell id="eVPt_sh99IwoySq7BfNU-12" value="toggle online / offline status" style="rounded=0;whiteSpace=wrap;html=1;" parent="1" vertex="1">
          <mxGeometry x="-680" y="280" width="80" height="40" as="geometry" />
        </mxCell>
        <mxCell id="eVPt_sh99IwoySq7BfNU-13" value="set socials handle" style="rounded=0;whiteSpace=wrap;html=1;" parent="1" vertex="1">
          <mxGeometry x="-680" y="560" width="80" height="40" as="geometry" />
        </mxCell>
        <mxCell id="otDK7fsZ7L4zqUEKycYJ-1" value="&lt;p style=&quot;line-height: 120%; font-size: 13px;&quot;&gt;landing&lt;/p&gt;" style="rounded=0;whiteSpace=wrap;html=1;align=left;horizontal=1;verticalAlign=top;fontSize=13;spacing=2;" vertex="1" parent="1">
          <mxGeometry x="880" y="240" width="600" height="520" as="geometry" />
        </mxCell>
        <mxCell id="otDK7fsZ7L4zqUEKycYJ-2" value="data visualization" style="rounded=0;whiteSpace=wrap;html=1;" vertex="1" parent="1">
          <mxGeometry x="930" y="520" width="519" height="160" as="geometry" />
        </mxCell>
        <mxCell id="otDK7fsZ7L4zqUEKycYJ-3" value="left clicks" style="rounded=0;whiteSpace=wrap;html=1;" vertex="1" parent="1">
          <mxGeometry x="1079" y="440" width="90" height="60" as="geometry" />
        </mxCell>
        <mxCell id="otDK7fsZ7L4zqUEKycYJ-4" value="keypresses" style="rounded=0;whiteSpace=wrap;html=1;" vertex="1" parent="1">
          <mxGeometry x="930" y="440" width="109" height="60" as="geometry" />
        </mxCell>
        <mxCell id="otDK7fsZ7L4zqUEKycYJ-5" value="right clicks" style="rounded=0;whiteSpace=wrap;html=1;" vertex="1" parent="1">
          <mxGeometry x="1209" y="440" width="94.5" height="60" as="geometry" />
        </mxCell>
        <mxCell id="otDK7fsZ7L4zqUEKycYJ-6" value="mouse movement" style="rounded=0;whiteSpace=wrap;html=1;" vertex="1" parent="1">
          <mxGeometry x="1339" y="440" width="110" height="60" as="geometry" />
        </mxCell>
        <mxCell id="otDK7fsZ7L4zqUEKycYJ-7" value="legend" style="rounded=0;whiteSpace=wrap;html=1;" vertex="1" parent="1">
          <mxGeometry x="930" y="700" width="519" height="20" as="geometry" />
        </mxCell>
        <mxCell id="otDK7fsZ7L4zqUEKycYJ-8" value="" style="rounded=0;whiteSpace=wrap;html=1;" vertex="1" parent="1">
          <mxGeometry x="920" y="280" width="520" height="120" as="geometry" />
        </mxCell>
        <mxCell id="otDK7fsZ7L4zqUEKycYJ-9" value="pfp" style="rounded=0;whiteSpace=wrap;html=1;" vertex="1" parent="1">
          <mxGeometry x="930" y="290" width="100" height="100" as="geometry" />
        </mxCell>
        <mxCell id="otDK7fsZ7L4zqUEKycYJ-10" value="kazdesu" style="rounded=0;whiteSpace=wrap;html=1;" vertex="1" parent="1">
          <mxGeometry x="1040" y="290" width="120" height="30" as="geometry" />
        </mxCell>
      </root>
    </mxGraphModel>
  </diagram>
</mxfile>
